<svg width="178" height="16" viewBox="0 0 178 16" fill="none" xmlns="http://www.w3.org/2000/svg">
<path d="M7.41563 15.2999C6.10896 15.2999 4.96229 15.0199 3.97563 14.4599C3.00229 13.8865 2.24896 13.0532 1.71563 11.9599C1.18229 10.8665 0.915625 9.54654 0.915625 7.99988C0.915625 6.45321 1.18229 5.13321 1.71563 4.03988C2.24896 2.94654 3.00229 2.11988 3.97563 1.55988C4.96229 0.986544 6.10896 0.699877 7.41563 0.699877C8.72229 0.699877 9.86229 0.986544 10.8356 1.55988C11.8223 2.11988 12.5823 2.94654 13.1156 4.03988C13.649 5.13321 13.9156 6.45321 13.9156 7.99988C13.9156 9.54654 13.649 10.8665 13.1156 11.9599C12.5823 13.0532 11.8223 13.8865 10.8356 14.4599C9.86229 15.0199 8.72229 15.2999 7.41563 15.2999ZM7.41563 14.8999C7.93563 14.8999 8.41563 14.6799 8.85563 14.2399C9.30896 13.7999 9.68229 13.0665 9.97563 12.0399C10.269 11.0132 10.4156 9.66654 10.4156 7.99988C10.4156 6.33321 10.269 4.98654 9.97563 3.95988C9.68229 2.93321 9.30896 2.19988 8.85563 1.75988C8.41563 1.31988 7.93563 1.09988 7.41563 1.09988C6.89563 1.09988 6.40896 1.31988 5.95563 1.75988C5.51563 2.19988 5.14896 2.93321 4.85563 3.95988C4.56229 4.98654 4.41563 6.33321 4.41563 7.99988C4.41563 9.66654 4.56229 11.0132 4.85563 12.0399C5.14896 13.0665 5.51563 13.7999 5.95563 14.2399C6.40896 14.6799 6.89563 14.8999 7.41563 14.8999ZM17.6203 4.39988V14.0999L19.2203 14.6999V14.9999H15.4203V14.6999L17.0203 14.0999V1.69988L15.6203 1.29988V0.999877H17.7203C18.427 0.999877 18.9803 1.12654 19.3803 1.37988C19.7803 1.63321 20.1603 1.97321 20.5203 2.39988L26.9203 9.89988V1.89988L25.3203 1.29988V0.999877H29.1203V1.29988L27.5203 1.89988V15.2999H26.9203L17.6203 4.39988ZM30.4297 14.6999L31.6297 14.3999V1.59988L30.4297 1.29988V0.999877H36.1297V1.29988L34.9297 1.59988V14.4999H39.2297C39.2297 13.6599 39.443 12.8799 39.8697 12.1599C40.0564 11.8532 40.2764 11.5999 40.5297 11.3999H41.1297V14.9999H30.4297V14.6999ZM42.6367 14.9999V14.6999L43.8367 14.3999V1.59988L42.6367 1.29988V0.999877H48.3367V1.29988L47.1367 1.59988V14.3999L48.3367 14.6999V14.9999H42.6367ZM51.9367 4.39988V14.0999L53.5367 14.6999V14.9999H49.7367V14.6999L51.3367 14.0999V1.69988L49.9367 1.29988V0.999877H52.0367C52.7434 0.999877 53.2967 1.12654 53.6967 1.37988C54.0967 1.63321 54.4767 1.97321 54.8367 2.39988L61.2367 9.89988V1.89988L59.6367 1.29988V0.999877H63.4367V1.29988L61.8367 1.89988V15.2999H61.2367L51.9367 4.39988ZM64.7461 14.6999L65.9461 14.3999V1.59988L64.7461 1.29988V0.999877H75.4461V4.59988H74.8461C74.5928 4.39988 74.3728 4.14654 74.1861 3.83988C73.7594 3.11988 73.5461 2.33988 73.5461 1.49988H69.2461V7.79988H71.5461C71.6394 7.29321 71.8128 6.81988 72.0661 6.37988C72.1728 6.17988 72.2994 5.98654 72.4461 5.79988H73.0461V10.2999H72.4461C72.2994 10.1132 72.1728 9.91988 72.0661 9.71988C71.8128 9.27988 71.6394 8.80654 71.5461 8.29988H69.2461V14.4999H73.9461C73.9461 13.6599 74.1594 12.8799 74.5861 12.1599C74.7728 11.8532 74.9928 11.5999 75.2461 11.3999H75.8461V14.9999H64.7461V14.6999ZM89.9422 15.2999C87.8089 15.2999 86.1422 14.6665 84.9422 13.3999C83.7422 12.1332 83.1422 10.3332 83.1422 7.99988C83.1422 6.46654 83.4022 5.15321 83.9222 4.05988C84.4555 2.95321 85.1955 2.11988 86.1422 1.55988C87.1022 0.986544 88.2089 0.699877 89.4622 0.699877C90.2222 0.699877 90.9889 0.919877 91.7622 1.35988C92.0555 1.51988 92.3489 1.73321 92.6422 1.99988C92.8689 1.65321 93.1022 1.37988 93.3422 1.17988C93.5822 1.00654 93.7155 0.91321 93.7422 0.899877H94.2422V4.69988H93.4422C93.2689 4.05988 93.0089 3.47988 92.6622 2.95988C92.3422 2.45321 91.9422 2.03321 91.4622 1.69988C90.9955 1.36654 90.4555 1.19988 89.8422 1.19988C88.9222 1.19988 88.1555 1.73321 87.5422 2.79988C86.9422 3.86654 86.6422 5.59988 86.6422 7.99988C86.6422 10.4399 86.9689 12.1865 87.6222 13.2399C88.2889 14.2799 89.1955 14.7999 90.3422 14.7999C90.9689 14.7999 91.5622 14.6265 92.1222 14.2799C92.6955 13.9199 93.1555 13.4465 93.5022 12.8599C93.8622 12.2732 94.0422 11.6532 94.0422 10.9999H94.5422C94.5422 11.7599 94.3355 12.4732 93.9222 13.1399C93.5222 13.7932 92.9689 14.3199 92.2622 14.7199C91.5689 15.1065 90.7955 15.2999 89.9422 15.2999ZM102.259 15.2999C100.953 15.2999 99.806 15.0199 98.8194 14.4599C97.846 13.8865 97.0927 13.0532 96.5594 11.9599C96.026 10.8665 95.7594 9.54654 95.7594 7.99988C95.7594 6.45321 96.026 5.13321 96.5594 4.03988C97.0927 2.94654 97.846 2.11988 98.8194 1.55988C99.806 0.986544 100.953 0.699877 102.259 0.699877C103.566 0.699877 104.706 0.986544 105.679 1.55988C106.666 2.11988 107.426 2.94654 107.959 4.03988C108.493 5.13321 108.759 6.45321 108.759 7.99988C108.759 9.54654 108.493 10.8665 107.959 11.9599C107.426 13.0532 106.666 13.8865 105.679 14.4599C104.706 15.0199 103.566 15.2999 102.259 15.2999ZM102.259 14.8999C102.779 14.8999 103.259 14.6799 103.699 14.2399C104.153 13.7999 104.526 13.0665 104.819 12.0399C105.113 11.0132 105.259 9.66654 105.259 7.99988C105.259 6.33321 105.113 4.98654 104.819 3.95988C104.526 2.93321 104.153 2.19988 103.699 1.75988C103.259 1.31988 102.779 1.09988 102.259 1.09988C101.739 1.09988 101.253 1.31988 100.799 1.75988C100.359 2.19988 99.9927 2.93321 99.6994 3.95988C99.406 4.98654 99.2594 6.33321 99.2594 7.99988C99.2594 9.66654 99.406 11.0132 99.6994 12.0399C99.9927 13.0665 100.359 13.7999 100.799 14.2399C101.253 14.6799 101.739 14.8999 102.259 14.8999ZM112.464 4.39988V14.0999L114.064 14.6999V14.9999H110.264V14.6999L111.864 14.0999V1.69988L110.464 1.29988V0.999877H112.564C113.271 0.999877 113.824 1.12654 114.224 1.37988C114.624 1.63321 115.004 1.97321 115.364 2.39988L121.764 9.89988V1.89988L120.164 1.29988V0.999877H123.964V1.29988L122.364 1.89988V15.2999H121.764L112.464 4.39988ZM127.969 14.6999L129.169 14.3999V1.49988H126.869C126.869 2.31321 126.649 3.09321 126.209 3.83988C126.022 4.14654 125.809 4.39988 125.569 4.59988H124.969V0.999877H136.669V4.59988H136.069C135.815 4.39988 135.595 4.14654 135.409 3.83988C134.982 3.11988 134.769 2.33988 134.769 1.49988H132.469V14.3999L133.669 14.6999V14.9999H127.969V14.6999ZM138.164 14.6999L139.364 14.3999V1.59988L138.164 1.29988V0.999877H143.464C145.731 0.999877 147.364 1.34654 148.364 2.03988C149.364 2.71988 149.864 3.67321 149.864 4.89988C149.864 5.72654 149.644 6.39988 149.204 6.91988C148.764 7.42654 148.197 7.80654 147.504 8.05988C146.771 8.33988 145.991 8.48654 145.164 8.49988V8.59988C145.657 8.62654 146.091 8.69988 146.464 8.81988C147.397 9.11321 148.031 9.63988 148.364 10.3999L150.164 14.3999L151.164 14.6999V14.9999H148.364C147.271 14.9999 146.471 14.4332 145.964 13.2999L143.964 8.79988H142.664V14.3999L144.064 14.6999V14.9999H138.164V14.6999ZM143.464 8.29988C144.397 8.29988 145.131 8.00654 145.664 7.41988C146.197 6.83321 146.464 5.99321 146.464 4.89988C146.464 3.80654 146.197 2.96654 145.664 2.37988C145.131 1.79321 144.397 1.49988 143.464 1.49988H142.664V8.29988H143.464ZM158.373 15.2999C157.066 15.2999 155.919 15.0199 154.933 14.4599C153.959 13.8865 153.206 13.0532 152.673 11.9599C152.139 10.8665 151.873 9.54654 151.873 7.99988C151.873 6.45321 152.139 5.13321 152.673 4.03988C153.206 2.94654 153.959 2.11988 154.933 1.55988C155.919 0.986544 157.066 0.699877 158.373 0.699877C159.679 0.699877 160.819 0.986544 161.793 1.55988C162.779 2.11988 163.539 2.94654 164.073 4.03988C164.606 5.13321 164.873 6.45321 164.873 7.99988C164.873 9.54654 164.606 10.8665 164.073 11.9599C163.539 13.0532 162.779 13.8865 161.793 14.4599C160.819 15.0199 159.679 15.2999 158.373 15.2999ZM158.373 14.8999C158.893 14.8999 159.373 14.6799 159.813 14.2399C160.266 13.7999 160.639 13.0665 160.933 12.0399C161.226 11.0132 161.373 9.66654 161.373 7.99988C161.373 6.33321 161.226 4.98654 160.933 3.95988C160.639 2.93321 160.266 2.19988 159.813 1.75988C159.373 1.31988 158.893 1.09988 158.373 1.09988C157.853 1.09988 157.366 1.31988 156.913 1.75988C156.473 2.19988 156.106 2.93321 155.813 3.95988C155.519 4.98654 155.373 6.33321 155.373 7.99988C155.373 9.66654 155.519 11.0132 155.813 12.0399C156.106 13.0665 156.473 13.7999 156.913 14.2399C157.366 14.6799 157.853 14.8999 158.373 14.8999ZM166.777 14.6999L167.977 14.3999V1.59988L166.777 1.29988V0.999877H172.477V1.29988L171.277 1.59988V14.4999H175.577C175.577 13.6599 175.791 12.8799 176.217 12.1599C176.404 11.8532 176.624 11.5999 176.877 11.3999H177.477V14.9999H166.777V14.6999Z" fill="white"/>
</svg>
